<?xml version="1.0" standalone="no"?>
<!DOCTYPE svg PUBLIC "-//W3C//DTD SVG 20010904//EN"
 "http://www.w3.org/TR/2001/REC-SVG-20010904/DTD/svg10.dtd">
<svg version="1.0" xmlns="http://www.w3.org/2000/svg"
 width="2480.000000pt" height="540.000000pt" viewBox="0 0 2480.000000 540.000000"
 preserveAspectRatio="xMidYMid meet">
<metadata>
Created by potrace 1.16, written by Peter Selinger 2001-2019
</metadata>
<g transform="translate(0.000000,540.000000) scale(0.100000,-0.100000)"
fill="#000000" stroke="none">
<path d="M2835 5330 c-107 -14 -325 -59 -354 -75 -14 -7 -46 -18 -71 -25 -25
-7 -93 -32 -152 -57 -59 -25 -113 -41 -119 -37 -7 4 -9 3 -6 -3 7 -11 -131
-80 -148 -74 -5 1 -7 -1 -3 -5 10 -10 -81 -66 -94 -58 -7 4 -8 2 -4 -4 5 -8 2
-10 -9 -6 -10 4 -15 2 -13 -7 2 -8 -4 -13 -14 -13 -10 1 -16 -3 -15 -8 1 -6
-3 -12 -9 -15 -6 -2 -11 3 -11 12 0 8 21 27 46 41 25 15 69 41 96 59 80 52
192 105 310 147 61 21 124 45 140 52 27 12 148 44 229 61 56 12 17 16 -50 5
-217 -34 -665 -241 -859 -397 -152 -122 -233 -194 -310 -274 -119 -125 -168
-186 -160 -199 3 -6 -16 -41 -44 -78 -29 -38 -49 -73 -45 -82 3 -8 2 -11 -2
-8 -4 4 -14 -3 -23 -15 -51 -68 -161 -275 -161 -302 0 -8 -4 -15 -9 -15 -4 0
-23 -38 -41 -85 -18 -47 -35 -84 -37 -82 -12 13 122 312 175 389 16 24 41 63
55 88 14 25 48 76 77 114 28 37 49 70 46 73 -12 12 -172 -233 -259 -399 -41
-78 -114 -260 -150 -373 -38 -121 -85 -356 -97 -485 -13 -147 -13 -357 0 -365
6 -4 8 25 4 82 -8 109 11 366 36 489 30 146 70 298 82 309 8 7 9 4 4 -10 -4
-11 -21 -75 -37 -143 -44 -184 -69 -369 -71 -522 -1 -203 0 -226 13 -213 6 6
17 102 25 229 22 356 63 544 177 826 202 494 603 935 1082 1188 186 99 338
155 590 217 145 36 156 37 320 37 176 -1 181 -2 435 -62 119 -29 146 -37 304
-97 73 -27 357 -162 366 -173 9 -13 50 -32 50 -24 0 4 -26 23 -57 41 -32 19
-74 44 -93 57 -45 28 -355 152 -485 192 -206 65 -495 101 -650 82z"/>
<path d="M2195 5294 c-33 -8 -69 -15 -80 -17 -52 -10 -91 -20 -100 -27 -5 -4
-37 -15 -70 -25 -98 -28 -355 -134 -430 -178 -299 -174 -429 -270 -625 -461
-141 -139 -255 -275 -354 -426 -42 -63 -80 -121 -86 -127 -6 -7 -7 -13 -3 -13
4 0 3 -4 -4 -8 -13 -8 -143 -277 -163 -338 -7 -21 -21 -55 -32 -75 -28 -55
-114 -409 -133 -549 -48 -352 -21 -728 75 -1070 39 -136 108 -321 156 -413 14
-26 22 -53 18 -60 -4 -7 -3 -9 1 -4 5 4 25 -23 45 -60 69 -127 105 -184 183
-288 42 -57 77 -107 77 -111 0 -4 33 -42 73 -85 39 -42 93 -99 118 -125 25
-27 73 -71 107 -99 34 -27 62 -54 62 -58 0 -13 33 -38 147 -114 56 -37 99 -71
96 -77 -3 -5 -1 -6 5 -2 6 3 14 0 19 -8 9 -16 377 -210 463 -243 169 -67 528
-152 745 -179 163 -19 410 -15 565 11 249 41 599 134 703 187 71 36 33 27
-101 -23 -161 -61 -356 -111 -546 -141 -197 -31 -547 -31 -746 0 -590 91
-1092 343 -1500 752 -133 133 -215 236 -341 423 -94 140 -193 317 -169 302 5
-3 19 -24 30 -46 11 -21 26 -39 32 -39 6 0 9 -3 5 -6 -3 -3 3 -14 14 -25 11
-11 17 -24 14 -30 -4 -5 -1 -8 7 -7 7 2 12 -5 12 -14 -1 -10 2 -16 6 -13 5 3
52 -42 105 -99 53 -57 118 -119 143 -137 25 -18 71 -55 102 -83 31 -28 104
-80 161 -115 57 -35 128 -80 157 -98 68 -44 131 -72 327 -146 201 -75 296
-100 488 -128 190 -28 489 -30 670 -6 147 21 345 65 371 83 28 19 7 18 -84 -6
-535 -143 -1145 -80 -1655 170 -377 185 -675 446 -917 802 -75 110 -158 369
-209 648 -18 101 -23 174 -26 381 -4 226 -2 275 17 409 87 606 349 1119 790
1543 328 317 736 543 1172 651 92 22 168 44 168 49 0 9 -1 9 -75 -9z"/>
<path d="M4131 4953 c2 -6 49 -41 103 -77 257 -173 505 -418 690 -683 20 -29
36 -55 36 -58 0 -4 17 -32 39 -63 48 -72 161 -296 191 -382 13 -36 27 -70 31
-76 5 -6 10 -19 12 -30 2 -10 7 -26 10 -34 27 -66 84 -302 114 -475 24 -143
29 -542 8 -685 -24 -162 -80 -418 -116 -527 -24 -73 -28 -96 -19 -110 10 -16
11 -16 7 4 -3 12 -2 23 2 25 30 13 141 502 141 620 0 20 5 40 10 43 12 8 14
501 1 509 -4 3 -11 40 -15 83 -15 167 -105 550 -135 573 -4 3 -20 39 -35 80
-39 101 -133 299 -152 317 -8 8 -24 34 -36 57 -38 75 -138 216 -238 334 -98
117 -272 293 -322 326 -17 11 -25 23 -21 34 3 12 2 14 -4 4 -7 -10 -31 5 -97
58 -48 38 -100 77 -116 85 -19 10 -27 20 -24 30 4 8 1 15 -6 15 -6 0 -8 -4 -5
-10 9 -15 -8 -12 -34 7 -13 9 -22 11 -20 6z"/>
<path d="M2655 4605 c-116 -14 -325 -57 -307 -63 6 -2 67 6 134 17 68 12 164
25 213 31 285 31 648 -12 880 -106 50 -20 112 -45 138 -55 142 -57 401 -204
390 -222 -3 -6 -1 -7 5 -3 14 8 153 -84 146 -96 -3 -5 -2 -7 3 -6 14 4 63 -34
56 -45 -3 -5 -1 -7 5 -4 23 15 353 -315 337 -337 -3 -3 -2 -4 2 -1 8 6 39 -37
35 -48 -1 -5 2 -6 7 -3 13 8 34 -21 25 -35 -4 -7 -3 -9 3 -6 10 6 60 -59 65
-85 2 -7 10 -19 18 -26 13 -12 13 -13 0 -7 -8 4 -4 -2 9 -13 14 -11 21 -24 17
-31 -4 -6 -4 -10 1 -9 4 2 9 0 10 -5 2 -4 12 -17 23 -29 11 -12 18 -28 15 -36
-2 -7 0 -10 5 -7 12 8 93 -153 86 -172 -4 -9 -2 -11 6 -7 8 5 9 2 5 -10 -4 -9
-3 -14 2 -11 12 7 24 -31 15 -46 -5 -8 -3 -9 6 -4 10 6 12 4 7 -9 -4 -9 -3
-15 2 -12 8 5 65 -123 58 -131 -3 -2 -9 10 -15 26 -6 17 -13 31 -16 31 -3 0 2
-20 12 -45 9 -24 19 -40 22 -34 4 5 12 -9 19 -32 7 -22 10 -44 7 -47 -3 -3 -6
3 -6 13 0 10 -2 16 -5 13 -4 -3 -3 -18 1 -33 4 -16 9 -22 14 -15 20 32 75
-266 91 -487 12 -172 3 -412 -21 -533 -5 -25 -10 -63 -10 -85 -1 -22 -10 -60
-20 -85 l-20 -45 5 40 c4 26 -3 12 -20 -40 -36 -118 -39 -136 -11 -81 13 27
22 55 19 63 -3 8 0 13 7 11 17 -4 65 112 83 202 49 237 49 511 1 800 -73 440
-280 871 -585 1216 -201 228 -450 419 -722 553 -151 75 -368 158 -427 164 -14
2 -30 6 -36 10 -17 10 -214 46 -316 57 -125 13 -345 11 -473 -5z"/>
<path d="M2281 4517 c-1 -15 -5 -16 -21 -7 -15 8 -20 8 -18 -1 3 -13 -80 -41
-100 -34 -8 3 -10 0 -6 -6 4 -8 -1 -9 -15 -4 -13 4 -21 2 -21 -5 0 -6 -4 -8
-10 -5 -5 3 -10 1 -10 -5 0 -6 -4 -8 -10 -5 -5 3 -10 1 -10 -5 0 -7 -7 -10
-15 -6 -8 3 -15 1 -15 -5 0 -6 -4 -7 -10 -4 -5 3 -10 2 -10 -3 0 -10 -54 -35
-76 -35 -8 0 -14 -4 -14 -9 0 -5 -4 -6 -10 -3 -5 3 -10 1 -10 -5 0 -6 -4 -8
-10 -5 -5 3 -10 2 -10 -4 0 -6 -13 -17 -30 -26 -16 -9 -30 -13 -30 -10 0 3 -9
-4 -20 -15 -12 -12 -25 -18 -30 -15 -6 4 -10 1 -10 -5 0 -6 -5 -8 -10 -5 -6 4
-9 1 -8 -7 2 -7 -6 -13 -17 -13 -11 -1 -19 -6 -17 -13 2 -11 -11 -16 -31 -13
-5 1 -6 -3 -2 -9 6 -9 -8 -14 -28 -11 -5 1 -6 -3 -2 -8 7 -12 -29 -33 -41 -23
-5 4 -6 3 -1 -2 4 -5 0 -18 -10 -28 -18 -20 -38 -25 -27 -6 5 7 3 8 -5 4 -7
-5 -10 -11 -6 -14 7 -7 -85 -102 -99 -102 -5 0 1 12 15 28 24 27 23 27 -8 -2
-18 -16 -30 -33 -26 -38 3 -6 -15 -31 -39 -56 -43 -46 -114 -131 -133 -162 -6
-9 4 0 20 19 111 130 177 201 244 257 216 185 453 315 721 396 52 16 83 27 68
25 -19 -3 -28 1 -31 12 -4 13 -5 13 -6 -2z"/>
<path d="M2754 4466 l-59 -54 -64 51 -63 51 -98 -12 c-440 -56 -882 -321
-1171 -705 -162 -215 -293 -520 -333 -772 -29 -188 -29 -182 13 -229 70 -78
69 -68 14 -138 -56 -71 -55 -60 -26 -242 70 -443 328 -866 698 -1143 129 -97
212 -145 363 -210 182 -79 337 -119 534 -139 l67 -7 60 52 c67 58 62 58 136
-5 l50 -42 85 10 c396 47 820 274 1093 584 144 163 296 420 357 603 54 161
100 393 100 499 0 43 -4 51 -56 103 l-57 58 52 64 c30 39 51 75 51 90 0 41
-38 215 -71 321 -91 294 -246 544 -475 766 -272 263 -616 433 -984 485 -153
21 -149 22 -216 -39z m-663 -387 c12 -6 18 -17 15 -25 -7 -19 24 -18 50 1 25
19 50 19 58 -1 9 -24 8 -24 -20 -14 -31 12 -66 -6 -42 -21 7 -5 -14 -7 -49 -5
-34 1 -60 -1 -57 -6 3 -4 -1 -8 -8 -9 -10 0 -10 -2 0 -6 33 -13 4 -23 -68 -23
-65 0 -81 3 -88 18 -5 9 -7 23 -4 30 3 9 -2 13 -14 10 -11 -2 -18 -11 -17 -22
1 -13 -2 -15 -10 -7 -7 7 -6 16 7 30 21 23 87 36 98 18 5 -8 10 -9 16 -2 5 8
47 25 110 44 2 1 12 -4 23 -10z m786 -91 c-2 -7 -13 -12 -25 -10 -16 2 -19 -1
-15 -18 3 -11 0 -20 -6 -20 -6 0 -11 -7 -11 -15 0 -26 50 -13 51 14 0 9 3 11
5 4 3 -7 0 -21 -6 -32 -9 -18 -6 -25 22 -50 l33 -29 -27 5 c-18 4 -25 10 -21
20 4 11 0 14 -13 11 -10 -2 -19 -8 -19 -13 -1 -6 -6 -19 -12 -31 -12 -21 -7
-64 7 -64 12 0 23 38 15 50 -3 6 1 7 9 4 20 -7 20 -8 1 -44 -9 -18 -11 -31 -5
-35 18 -11 10 -25 -15 -25 -13 0 -28 8 -34 17 -7 13 -13 14 -23 7 -7 -6 -22
-14 -32 -18 -19 -6 -19 -6 -3 12 9 10 17 26 17 34 0 20 -26 42 -34 29 -3 -5
-1 -11 5 -13 5 -2 7 -11 3 -21 -6 -16 -8 -15 -20 8 -7 14 -11 32 -8 39 3 7 -2
16 -10 19 -19 8 -46 -1 -46 -15 0 -5 -5 -6 -10 -3 -6 4 -8 11 -5 16 4 5 1 9
-4 9 -6 0 -11 7 -11 15 0 8 -5 15 -11 15 -5 0 -7 -4 -4 -10 3 -5 1 -10 -5 -10
-7 0 -9 6 -6 13 3 6 9 20 12 30 4 9 10 17 14 17 5 0 16 3 24 6 14 5 15 2 6
-22 -6 -15 -9 -33 -6 -40 7 -19 65 12 76 41 5 13 13 26 19 30 6 3 8 0 5 -8 -3
-8 0 -18 6 -22 14 -8 50 28 50 50 0 8 5 15 10 15 15 0 12 17 -4 23 -8 3 -23
-3 -35 -14 -27 -25 -47 -21 -28 5 19 26 133 48 124 24z m-868 -918 c142 -72
155 -277 25 -360 -80 -50 -170 -48 -242 7 -25 19 -72 87 -72 105 0 2 13 3 28
4 21 1 33 -6 44 -27 38 -65 148 -84 212 -35 93 71 87 186 -13 253 -59 40 -143
24 -193 -36 -17 -20 -36 -31 -53 -31 -25 0 -25 1 -11 28 19 35 74 88 106 101
43 17 127 13 169 -9z m-563 -159 c79 -36 124 -109 124 -201 0 -168 -163 -270
-313 -197 -52 26 -89 64 -107 111 -8 22 -6 24 21 28 25 4 33 0 44 -23 17 -33
67 -65 115 -74 74 -14 157 43 181 125 23 77 -34 167 -121 190 -68 18 -124 -7
-183 -81 -8 -11 -21 -14 -41 -10 l-28 6 34 50 c62 90 175 121 274 76z m1606
-81 l112 -100 101 100 c55 55 107 100 116 100 26 0 39 -23 39 -70 l0 -46 -34
4 c-32 4 -40 -2 -117 -82 -45 -47 -90 -86 -100 -86 -20 0 -156 121 -181 162
-15 24 -24 28 -61 28 -43 0 -44 0 -39 33 5 37 19 57 38 57 7 0 64 -45 126
-100z m630 88 c18 -15 238 -371 245 -398 5 -19 -21 -50 -42 -50 -18 0 -44 36
-133 181 -40 64 -72 126 -72 137 0 28 -26 52 -57 52 -19 0 -24 4 -19 16 3 9 6
20 6 25 0 11 37 49 48 49 5 0 15 -6 24 -12z m-1244 -6 c9 -7 12 -57 10 -217
-3 -185 -5 -209 -20 -219 -13 -8 -23 -8 -35 0 -16 10 -18 32 -21 188 -2 168
-3 176 -22 176 -16 0 -20 7 -20 33 0 19 3 37 7 40 9 10 85 8 101 -1z m1730 -5
c14 -17 16 -391 2 -417 -12 -22 -40 -26 -58 -8 -8 8 -12 64 -12 185 l0 173
-25 0 c-22 0 -25 4 -25 34 0 19 6 37 13 39 25 11 95 7 105 -6z m-2419 -184
c19 -20 21 -34 21 -126 0 -118 -10 -139 -55 -119 l-25 12 0 162 1 163 19 -35
c10 -19 28 -45 39 -57z m1209 75 c8 -8 12 -57 12 -154 0 -116 -3 -145 -16
-158 -8 -9 -21 -16 -28 -16 -31 0 -36 25 -36 182 l0 158 28 0 c15 0 33 -5 40
-12z m690 -23 c3 -37 -89 -285 -112 -300 -21 -13 -50 5 -54 33 -2 12 20 85 49
162 l53 141 31 -3 c25 -3 30 -8 33 -33z m-228 -134 c0 -114 -3 -143 -16 -155
-18 -19 -20 -19 -45 -6 -17 10 -19 23 -19 155 l0 145 40 0 40 0 0 -139z m-660
29 c20 11 21 9 18 -86 -2 -79 -6 -99 -20 -108 -13 -8 -23 -8 -35 0 -15 9 -19
29 -21 108 -3 95 -2 97 18 86 14 -8 26 -8 40 0z m243 -907 c168 -91 149 -313
-27 -315 -42 -1 -89 18 -142 57 -30 23 -30 23 -20 83 l9 59 35 -9 c40 -11 52
-1 52 48 0 25 -6 33 -34 46 -30 15 -38 34 -27 67 4 12 110 -12 154 -36z m-436
-178 c20 -9 51 -27 69 -40 30 -23 32 -28 23 -57 -5 -18 -9 -45 -9 -60 0 -21
-5 -28 -19 -28 -38 0 -42 -67 -6 -106 52 -56 -19 -69 -125 -22 -151 65 -190
244 -68 310 41 21 88 23 135 3z"/>
<path d="M6785 4114 c-261 -46 -493 -166 -697 -363 -55 -52 -128 -133 -163
-180 -102 -136 -196 -331 -239 -499 -15 -55 -26 -142 -19 -142 1 0 23 15 47
34 69 53 128 71 226 71 73 0 93 -5 145 -30 34 -16 85 -54 118 -87 32 -32 60
-58 61 -58 2 0 8 19 15 43 22 72 98 209 155 277 93 112 226 202 361 247 70 23
96 27 215 27 153 1 219 -13 335 -71 192 -95 364 -306 421 -518 40 -150 26
-364 -33 -512 -72 -181 -245 -362 -416 -438 -145 -63 -343 -78 -491 -36 -249
70 -455 262 -540 504 -12 34 -25 63 -29 65 -5 2 -21 -13 -36 -32 -39 -49 -82
-83 -138 -109 -40 -18 -66 -22 -153 -22 -112 0 -147 11 -226 71 -17 13 -33 24
-36 24 -11 0 5 -98 33 -192 63 -214 179 -414 332 -575 208 -217 444 -350 727
-410 128 -26 391 -24 528 5 532 115 953 543 1072 1091 41 187 48 417 19 616
-79 535 -449 987 -942 1150 -56 18 -144 40 -196 49 -116 20 -345 20 -456 0z"/>
<path d="M8792 4114 c-55 -20 -129 -95 -161 -164 l-26 -55 0 -315 0 -315 25
-50 c30 -60 91 -123 145 -150 31 -16 60 -20 130 -20 105 0 144 16 212 87 65
67 83 115 83 231 l0 98 533 -3 534 -3 49 -30 c59 -37 110 -109 119 -170 10
-64 -17 -138 -70 -191 -76 -75 -66 -74 -749 -73 -331 0 -649 4 -707 8 -95 8
-114 12 -178 46 -39 21 -82 51 -96 66 -13 16 -26 29 -30 29 -3 0 -4 -388 -3
-863 l3 -862 33 -68 c68 -137 210 -196 362 -151 41 12 67 29 110 72 92 92 90
81 90 604 l0 448 528 0 c294 0 557 5 596 10 158 23 303 93 424 205 94 87 156
171 207 280 61 129 76 196 82 368 10 277 -40 442 -192 634 -108 137 -249 234
-415 285 -75 22 -75 22 -835 25 -660 2 -766 0 -803 -13z"/>
<path d="M11445 4114 c-127 -45 -204 -187 -192 -350 7 -98 38 -163 104 -224
87 -79 91 -80 570 -80 l413 0 2 -1032 3 -1033 24 -45 c32 -62 77 -107 136
-138 68 -35 187 -38 257 -5 57 26 118 88 149 151 l24 47 0 1250 0 1250 -21 46
c-30 65 -86 123 -147 153 l-51 26 -615 -1 c-508 0 -623 -3 -656 -15z"/>
<path d="M12895 4110 c17 -19 17 -20 0 -20 -13 0 -9 -9 20 -41 20 -23 51 -71
69 -108 l31 -66 3 -207 4 -208 372 0 c444 0 448 1 536 88 73 74 90 121 90 256
0 85 -4 109 -24 152 -30 65 -85 120 -150 150 l-51 24 -459 0 c-458 0 -459 0
-441 -20z"/>
<path d="M14417 4116 c-86 -32 -156 -114 -182 -212 -12 -48 -15 -142 -15 -531
0 -260 3 -473 6 -473 4 0 26 18 49 39 58 53 111 79 193 93 59 10 79 9 137 -5
76 -19 153 -63 190 -111 l25 -31 -2 520 c-3 512 -3 521 -25 561 -28 52 -93
117 -141 140 -48 24 -182 30 -235 10z"/>
<path d="M15250 4121 c-92 -30 -145 -78 -189 -171 l-26 -55 -3 -412 c-2 -227
-1 -413 1 -413 2 0 23 18 46 40 83 79 207 120 309 100 103 -19 152 -54 366
-254 696 -656 665 -631 796 -631 54 0 87 6 120 21 31 14 152 121 379 335 504
474 509 479 570 508 48 22 69 26 146 25 107 0 176 -26 250 -95 l46 -42 -3 424
c-3 412 -4 425 -25 464 -32 62 -111 129 -172 150 -69 22 -169 17 -228 -13 -49
-25 -39 -16 -626 -569 l-458 -432 -521 490 c-287 270 -540 500 -562 511 -45
23 -171 34 -216 19z"/>
<path d="M19698 4120 c-43 -13 -93 -47 -130 -88 -47 -52 -300 -535 -304 -579
l-2 -34 36 8 c20 4 71 8 113 8 66 0 83 -4 143 -35 44 -22 85 -52 113 -85 32
-36 193 -328 564 -1025 477 -897 523 -979 573 -1026 153 -145 382 -95 473 103
22 48 24 64 21 161 l-3 107 -625 1179 c-684 1291 -667 1263 -774 1299 -52 18
-151 21 -198 7z"/>
<path d="M21705 4114 c-127 -45 -204 -187 -192 -350 7 -98 38 -163 104 -224
87 -79 91 -80 570 -80 l413 0 2 -1032 3 -1033 24 -45 c32 -62 77 -107 136
-138 68 -35 187 -38 257 -5 57 26 118 88 149 151 l24 47 0 1250 0 1250 -21 46
c-30 65 -86 123 -147 153 l-51 26 -615 -1 c-508 0 -623 -3 -656 -15z"/>
<path d="M23155 4110 c17 -19 17 -20 0 -20 -13 0 -9 -9 20 -41 20 -23 51 -71
69 -108 l31 -66 3 -207 4 -208 372 0 c444 0 448 1 536 88 73 74 90 121 90 256
0 85 -4 109 -24 152 -30 65 -85 120 -150 150 l-51 24 -459 0 c-458 0 -459 0
-441 -20z"/>
<path d="M4006 4010 c193 -202 302 -369 399 -612 109 -272 149 -534 126 -818
-21 -263 -78 -463 -196 -700 -322 -642 -1021 -1038 -1733 -982 -327 26 -597
116 -861 287 -191 123 -395 327 -520 520 -56 85 -72 105 -51 65 60 -115 226
-317 367 -443 138 -124 258 -207 408 -281 992 -492 2187 14 2535 1073 71 217
85 312 84 586 -1 272 -12 350 -85 570 -97 296 -260 547 -499 770 -64 59 -60
54 26 -35z"/>
<path d="M19290 3381 c-40 -14 -67 -33 -99 -68 -63 -69 -895 -1632 -912 -1711
-48 -234 109 -439 322 -419 71 6 149 47 196 102 42 48 869 1599 890 1669 21
69 13 195 -16 261 -65 146 -232 219 -381 166z"/>
<path d="M17703 3170 c-89 -18 -167 -80 -214 -170 l-24 -45 0 -770 0 -770 33
-68 c68 -137 210 -196 362 -151 41 12 67 29 110 72 95 96 90 41 90 917 l0 762
-30 61 c-50 98 -129 154 -235 165 -27 3 -69 1 -92 -3z"/>
<path d="M15237 3156 c-96 -36 -167 -114 -192 -214 -14 -52 -15 -161 -13 -794
l3 -733 33 -68 c68 -137 210 -196 362 -151 41 12 67 29 110 72 96 97 91 41 88
928 -3 767 -3 769 -25 809 -26 48 -95 116 -143 141 -46 23 -172 29 -223 10z"/>
<path d="M5828 2975 c-199 -73 -263 -372 -119 -554 66 -83 199 -120 313 -87
71 20 147 87 184 161 25 51 26 61 22 172 -3 108 -6 122 -33 172 -34 62 -94
114 -155 136 -52 18 -162 18 -212 0z"/>
<path d="M14413 2974 c-60 -22 -127 -86 -160 -152 -25 -51 -28 -67 -28 -162 0
-92 3 -112 26 -161 56 -118 144 -174 274 -174 67 0 88 5 131 27 64 34 128 105
148 165 10 29 16 81 16 139 0 157 -48 246 -162 303 -52 26 -72 31 -132 30 -39
0 -90 -7 -113 -15z"/>
<path d="M791 2758 c-1 -128 27 -273 94 -473 59 -179 115 -328 121 -322 2 2
-7 32 -21 68 -24 60 -49 143 -61 198 -3 14 -8 29 -12 35 -3 6 -8 20 -9 31 -2
11 -8 31 -13 45 -31 81 -79 327 -81 414 -2 101 -17 104 -18 4z"/>
<path d="M14222 1919 l3 -504 28 -57 c36 -74 112 -143 180 -163 116 -34 213
-10 297 73 93 93 90 74 90 656 l0 500 -47 -46 c-145 -141 -347 -141 -503 -1
l-51 46 3 -504z"/>
</g>
</svg>
